<svg width="32" height="32" viewBox="0 0 32 32" fill="none" xmlns="http://www.w3.org/2000/svg">
<path d="M2 6.5C2 5.12 3.12 4 4.498 4H5.498C6.878 4 7.996 5.12 7.996 6.5V25.49C7.996 26.87 6.876 27.99 5.496 27.99H4.5C4.17153 27.99 3.84627 27.9253 3.54283 27.7995C3.23939 27.6737 2.9637 27.4894 2.73153 27.2571C2.49935 27.0247 2.31525 26.7489 2.18973 26.4453C2.06421 26.1418 1.99974 25.8165 2 25.488V6.5Z" fill="#F6B73E"/>
<path d="M9.99414 6.5C9.99414 5.12 11.1121 4 12.4921 4H13.4921C14.8701 4 15.9881 5.12 15.9881 6.5V25.49C15.9881 26.87 14.8681 27.99 13.4901 27.99H12.4901C11.8278 27.9889 11.1929 27.7251 10.725 27.2564C10.257 26.7876 9.99414 26.1523 9.99414 25.49V6.5Z" fill="#007675"/>
<path d="M23.9447 9.55372C23.7045 8.95784 23.2442 8.47729 22.6591 8.21177C22.0741 7.94625 21.4093 7.91616 20.8027 8.12772L19.6387 8.53572C19.3202 8.64754 19.0276 8.8227 18.7786 9.05066C18.5296 9.27861 18.3294 9.55462 18.19 9.86205C18.0506 10.1695 17.9748 10.502 17.9674 10.8395C17.96 11.1769 18.0209 11.5124 18.1467 11.8257L24.0207 26.4337C24.5187 27.6737 25.9007 28.2997 27.1627 27.8597L28.3267 27.4517C28.6454 27.3399 28.9382 27.1647 29.1874 26.9366C29.4365 26.7085 29.6369 26.4323 29.7763 26.1246C29.9157 25.817 29.9914 25.4842 29.9987 25.1465C30.006 24.8088 29.9447 24.4731 29.8187 24.1597L23.9447 9.55372Z" fill="#D69BA8"/>
</svg>
