<svg width="49" height="35" viewBox="0 0 49 35" fill="none" xmlns="http://www.w3.org/2000/svg">
<path d="M16.4071 15.8363C17.6227 16.2377 18.7106 16.9534 19.5604 17.9108C20.7802 19.5037 21.5808 21.3773 21.8889 23.3598C22.197 25.3424 22.0027 27.3705 21.3238 29.2585C20.9071 30.6586 20.1007 31.9112 18.9986 32.87C17.8966 33.8288 16.5444 34.4541 15.1002 34.673C13.2934 35.0367 11.4327 35.0406 9.62439 34.6847C7.81609 34.3287 6.0957 33.6198 4.56157 32.5985C3.16119 31.3899 2.03377 29.8974 1.25407 28.22C0.474377 26.5426 0.0602289 24.7186 0.0390943 22.8689C-0.150547 19.5112 0.350761 16.1504 1.51201 12.9942C3.19637 8.40069 5.65186 4.12815 8.77286 0.360305C8.92447 0.165427 9.14712 0.0385522 9.39207 0.00744823C9.63701 -0.0236558 9.8843 0.0435453 10.0798 0.194343C10.2761 0.349675 10.4034 0.575885 10.4345 0.824233C10.4655 1.07258 10.3977 1.32318 10.2458 1.52204C7.85839 4.60962 5.91699 8.01754 4.47859 11.6457C3.21368 14.6742 2.60262 17.9298 2.6787 21.2002C2.6787 20.983 4.84517 18.0659 4.99722 17.9108C5.73335 17.0058 6.66167 16.2759 7.71485 15.774C8.81507 15.2557 10.0273 15.0204 11.2415 15.0895C12.9925 15.0565 14.7372 15.3087 16.4071 15.8363Z" fill="#005792"/>
<path d="M43.3759 15.8363C44.5915 16.2377 45.6793 16.9534 46.5292 17.9108C47.749 19.5037 48.5496 21.3773 48.8577 23.3598C49.1657 25.3424 48.9714 27.3705 48.2925 29.2585C47.8759 30.6586 47.0694 31.9112 45.9674 32.87C44.8653 33.8288 43.5132 34.4541 42.0689 34.673C40.2622 35.0367 38.4014 35.0406 36.5931 34.6847C34.7848 34.3287 33.0644 33.6198 31.5303 32.5985C30.1299 31.3899 29.0025 29.8974 28.2228 28.22C27.4431 26.5426 27.029 24.7186 27.0078 22.8689C26.8182 19.5112 27.3195 16.1504 28.4808 12.9942C30.1651 8.40069 32.6206 4.12815 35.7416 0.360305C35.8932 0.165427 36.1159 0.0385522 36.3608 0.00744823C36.6058 -0.0236558 36.8531 0.0435453 37.0486 0.194343C37.2448 0.349675 37.3722 0.575885 37.4032 0.824233C37.4343 1.07258 37.3665 1.32318 37.2145 1.52204C34.8271 4.60962 32.8857 8.01754 31.4473 11.6457C30.1824 14.6742 29.5714 17.9298 29.6474 21.2002C29.6474 20.983 31.8139 18.0659 31.966 17.9108C32.7021 17.0058 33.6304 16.2759 34.6836 15.774C35.7838 15.2557 36.9961 15.0204 38.2103 15.0895C39.9613 15.0565 41.7059 15.3087 43.3759 15.8363Z" fill="#005792"/>
</svg>
