<svg width="32" height="32" viewBox="0 0 32 32" fill="none" xmlns="http://www.w3.org/2000/svg">
<path fill-rule="evenodd" clip-rule="evenodd" d="M10.6661 26.2401C10.493 25.9146 10.2828 25.6103 10.0395 25.3334C9.70248 24.985 9.3267 24.6763 8.91946 24.4134C9.37277 23.945 9.72039 23.3849 9.93889 22.7708C10.1574 22.1567 10.2417 21.5028 10.1861 20.8534C10.1791 19.7418 9.73163 18.6783 8.94186 17.8961C8.15209 17.1138 7.0844 16.6765 5.97279 16.6801C4.7838 16.6511 3.63105 17.0905 2.76307 17.9036C1.89509 18.7167 1.38141 19.8384 1.33279 21.0267C1.31144 21.7754 1.50798 22.5141 1.89853 23.1532C2.28908 23.7923 2.85683 24.3042 3.53279 24.6267C2.97247 24.9229 2.44124 25.2711 1.94613 25.6667C1.47114 26.0761 1.05796 26.5522 0.71946 27.0801C0.414229 27.5403 0.204953 28.0573 0.104151 28.6003C0.00334849 29.1432 0.0130903 29.701 0.132794 30.2401C0.13268 30.2984 0.144534 30.3562 0.167624 30.4097C0.190714 30.4633 0.224549 30.5116 0.267037 30.5516C0.309526 30.5916 0.359764 30.6224 0.414648 30.6422C0.469532 30.662 0.527894 30.6704 0.586127 30.6667C0.698175 30.6501 0.799516 30.591 0.869055 30.5016C0.938595 30.4122 0.970977 30.2994 0.95946 30.1867C0.953285 29.5676 1.13966 28.9619 1.49279 28.4534C1.8364 27.9242 2.22926 27.4287 2.66613 26.9734C3.31946 26.2534 3.99946 25.5334 4.55946 24.9867C4.9655 25.0882 5.38116 25.1463 5.79946 25.1601C5.88805 25.1434 5.96804 25.0963 6.02559 25.0269C6.08314 24.9575 6.11463 24.8702 6.11463 24.7801C6.11463 24.6899 6.08314 24.6026 6.02559 24.5332C5.96804 24.4638 5.88805 24.4167 5.79946 24.4001C3.43946 24.1601 2.41279 22.6667 2.53279 21.0801C2.62384 20.2394 3.03736 19.4667 3.68637 18.9246C4.33538 18.3825 5.16931 18.1133 6.01279 18.1734C6.78275 18.159 7.5272 18.4494 8.08407 18.9813C8.64095 19.5132 8.96516 20.2436 8.98613 21.0134C9.14487 21.7942 8.9907 22.6062 8.5568 23.2745C8.12291 23.9427 7.44397 24.414 6.66613 24.5867C6.55165 24.6001 6.44701 24.6579 6.3747 24.7477C6.3024 24.8375 6.2682 24.952 6.27946 25.0667C6.29898 25.1774 6.35889 25.2768 6.44758 25.3458C6.53627 25.4148 6.64741 25.4484 6.75946 25.4401C7.22444 25.3885 7.67621 25.253 8.09279 25.0401C8.41162 25.4161 8.70558 25.8125 8.97279 26.2267C9.13279 26.4667 9.27946 26.7201 9.41279 26.9601C9.54613 27.2001 9.70613 27.4534 9.83946 27.7067C10.1677 28.3366 10.4442 28.9921 10.6661 29.6667C10.6917 29.7767 10.7586 29.8726 10.8529 29.9346C10.9472 29.9967 11.0617 30.0201 11.1728 30.0001C11.229 29.9907 11.2826 29.9698 11.3303 29.9388C11.378 29.9077 11.4188 29.8671 11.4501 29.8195C11.4814 29.772 11.5025 29.7184 11.5122 29.6623C11.5218 29.6062 11.5198 29.5487 11.5061 29.4934C11.4611 28.7161 11.3269 27.9467 11.1061 27.2001C10.9873 26.868 10.8401 26.5468 10.6661 26.2401Z" fill="#FC7B71"/>
<path fill-rule="evenodd" clip-rule="evenodd" d="M31.5863 27.2003C31.476 26.8691 31.3378 26.5479 31.1729 26.2403C31.0006 25.9341 30.7949 25.6479 30.5596 25.3869C30.2226 25.0385 29.8468 24.7298 29.4396 24.4669C29.9048 24.0044 30.2648 23.4469 30.4949 22.8325C30.725 22.2181 30.8199 21.5613 30.7729 20.9069C30.7659 19.7953 30.3184 18.7319 29.5287 17.9496C28.7389 17.1673 27.6712 16.73 26.5596 16.7336C25.3749 16.6971 24.223 17.1261 23.3507 17.9286C22.4784 18.7311 21.9551 19.8433 21.8929 21.0269C21.8599 21.7662 22.0411 22.4992 22.4149 23.1379C22.7886 23.7766 23.3389 24.2936 23.9996 24.6269C23.4374 24.92 22.9059 25.2684 22.4129 25.6669C21.9344 26.0728 21.5208 26.5494 21.1863 27.0803C20.881 27.5405 20.6718 28.0575 20.5709 28.6005C20.4701 29.1434 20.4799 29.7012 20.5996 30.2403C20.6255 30.3424 20.6882 30.4313 20.7757 30.4899C20.8632 30.5486 20.9693 30.5728 21.0735 30.5579C21.1778 30.543 21.2729 30.49 21.3405 30.4093C21.408 30.3285 21.4434 30.2255 21.4396 30.1203C21.445 29.5009 21.6353 28.8973 21.9863 28.3869C22.3163 27.8831 22.6912 27.4101 23.1063 26.9736C23.7596 26.2536 24.4396 25.5336 24.9996 24.9869C25.4056 25.0884 25.8213 25.1465 26.2396 25.1603C26.3282 25.1436 26.4082 25.0965 26.4657 25.0271C26.5233 24.9577 26.5548 24.8704 26.5548 24.7803C26.5548 24.6901 26.5233 24.6028 26.4657 24.5334C26.4082 24.464 26.3282 24.4169 26.2396 24.4003C23.9996 24.1603 22.9329 22.6669 23.0529 21.0803C23.144 20.2396 23.5575 19.4669 24.2065 18.9248C24.8555 18.3827 25.6894 18.1135 26.5329 18.1736C27.3029 18.1592 28.0473 18.4496 28.6042 18.9815C29.1611 19.5134 29.4853 20.2438 29.5063 21.0136C29.6635 21.802 29.5021 22.6206 29.0573 23.2903C28.6126 23.9599 27.9206 24.4262 27.1329 24.5869C27.0769 24.5931 27.0226 24.6102 26.9732 24.6373C26.9238 24.6644 26.8802 24.7009 26.8449 24.7449C26.8096 24.7888 26.7833 24.8393 26.7675 24.8934C26.7518 24.9475 26.7468 25.0042 26.7529 25.0603C26.7591 25.1163 26.7762 25.1706 26.8033 25.22C26.8304 25.2694 26.8669 25.313 26.9109 25.3483C26.9548 25.3836 27.0053 25.4099 27.0594 25.4256C27.1135 25.4414 27.1702 25.4464 27.2263 25.4403C27.6912 25.3887 28.143 25.2532 28.5596 25.0403C28.8784 25.4163 29.1724 25.8127 29.4396 26.2269C29.5996 26.4669 29.7463 26.7203 29.8796 26.9603C30.0129 27.2003 30.1729 27.4536 30.3063 27.7069C30.63 28.3372 30.902 28.9927 31.1196 29.6669C31.1452 29.7769 31.212 29.8728 31.3063 29.9348C31.4006 29.9969 31.5152 30.0203 31.6263 30.0003C31.6815 29.9891 31.7341 29.9672 31.7808 29.9356C31.8276 29.9041 31.8676 29.8636 31.8986 29.8165C31.9296 29.7693 31.951 29.7166 31.9614 29.6611C31.9719 29.6057 31.9713 29.5488 31.9596 29.4936C31.9233 28.7174 31.798 27.9479 31.5863 27.2003Z" fill="#FC7B71"/>
<path fill-rule="evenodd" clip-rule="evenodd" d="M17.2393 8.6003C17.0393 9.0003 16.866 9.4003 16.6527 9.93363L16.2127 11.0936L15.906 12.0003L15.706 12.667L14.8527 11.907L13.786 10.9736L12.0927 9.41363C12.0579 9.37816 12.0164 9.34997 11.9706 9.33073C11.9248 9.31149 11.8757 9.30158 11.826 9.30158C11.7763 9.30158 11.7271 9.31149 11.6814 9.33073C11.6356 9.34997 11.5941 9.37816 11.5593 9.41363C11.5238 9.44839 11.4957 9.48989 11.4764 9.53568C11.4572 9.58146 11.4473 9.63063 11.4473 9.6803C11.4473 9.72997 11.4572 9.77914 11.4764 9.82493C11.4957 9.87072 11.5238 9.91221 11.5593 9.94697L13.1327 11.6803L14.106 12.6936L15.066 13.7203C15.1993 13.8536 15.3327 14.2003 15.4527 14.307C15.5831 14.4194 15.7473 14.4851 15.9193 14.4936C16.0298 14.4932 16.1388 14.4677 16.238 14.4193C16.3373 14.3708 16.4244 14.3005 16.4927 14.2136C16.6425 14.0331 16.7639 13.8308 16.8527 13.6136C17.026 13.227 17.146 12.7603 17.2527 12.467L17.5727 11.5603L18.0127 10.467L19.1327 8.0003C19.6946 6.90576 20.3364 5.85403 21.0527 4.85363C21.766 3.87405 22.5891 2.97934 23.506 2.18697C23.5944 2.11624 23.6511 2.0133 23.6636 1.90077C23.6761 1.78825 23.6434 1.67537 23.5727 1.58697C23.5019 1.49856 23.399 1.44187 23.2865 1.42937C23.1739 1.41687 23.0611 1.44958 22.9727 1.5203C21.9364 2.29441 20.9964 3.18966 20.1727 4.18697C19.3413 5.18068 18.5879 6.23716 17.9193 7.34697C17.6527 7.81363 17.4393 8.2003 17.2393 8.6003Z" fill="#FC7B71"/>
<path fill-rule="evenodd" clip-rule="evenodd" d="M26.413 8.78675C26.1651 8.15256 25.8381 7.55224 25.4396 7.00008C24.8637 6.21124 24.245 5.45455 23.5863 4.73341C23.5226 4.65738 23.4314 4.60975 23.3326 4.601C23.2339 4.59225 23.1357 4.62309 23.0596 4.68675C22.9836 4.7504 22.936 4.84165 22.9272 4.94041C22.9185 5.03918 22.9493 5.13738 23.013 5.21341C23.6275 5.93682 24.2017 6.69352 24.733 7.48008C25.079 7.98352 25.3569 8.53047 25.5596 9.10675C25.9126 9.98657 25.9971 10.9512 25.8025 11.879C25.6079 12.8068 25.143 13.6562 24.4663 14.3201C23.3483 15.2743 22.0452 15.9871 20.6387 16.4139C19.2322 16.8407 17.7527 16.9721 16.293 16.8001C12.373 16.6001 9.71963 15.6134 8.11963 14.2267C7.412 13.6787 6.88594 12.9301 6.61004 12.0786C6.33415 11.2272 6.32123 10.3123 6.57296 9.45341C7.57296 6.06675 12.1863 3.20008 18.893 4.22675C18.949 4.23638 19.0064 4.23488 19.0618 4.22233C19.1173 4.20979 19.1697 4.18644 19.2161 4.15363C19.2626 4.12082 19.3021 4.07919 19.3324 4.03111C19.3628 3.98303 19.3833 3.92944 19.393 3.87341C19.4026 3.81738 19.4011 3.76 19.3885 3.70455C19.376 3.6491 19.3527 3.59666 19.3198 3.55024C19.287 3.50381 19.2454 3.46429 19.1973 3.43395C19.1492 3.40361 19.0957 3.38304 19.0396 3.37341C11.6396 2.04008 6.5463 5.33341 5.33296 9.06675C4.5063 11.6134 5.33296 14.4001 8.51963 16.2801C10.8897 17.5272 13.5217 18.1943 16.1996 18.2267C17.8551 18.3673 19.5216 18.1625 21.0938 17.6255C22.666 17.0884 24.1095 16.2307 25.333 15.1067C26.1174 14.278 26.6387 13.2353 26.8309 12.1104C27.0232 10.9856 26.8777 9.82899 26.413 8.78675Z" fill="#FC7B71"/>
</svg>
