<svg width="32" height="32" viewBox="0 0 32 32" fill="none" xmlns="http://www.w3.org/2000/svg">
<path fill-rule="evenodd" clip-rule="evenodd" d="M11.4876 25.78C9.57826 25.8489 7.66647 25.7776 5.76758 25.5667C4.56758 25.5667 2.62091 25.6733 1.47425 25.5667C1.47425 25.4333 1.36758 25.2467 1.35425 25.14C1.34091 25.0333 1.02091 20.6333 0.940915 20.4733C0.914611 20.3933 0.863713 20.3236 0.795478 20.2742C0.727243 20.2248 0.645154 20.1982 0.560915 20.1982C0.476675 20.1982 0.394586 20.2248 0.326351 20.2742C0.258116 20.3236 0.207218 20.3933 0.180915 20.4733C0.263097 22.004 0.209554 23.5388 0.0209146 25.06C-0.179085 27.6867 0.914248 27.14 9.51425 26.9133L11.5542 26.66C11.6516 26.6291 11.7357 26.5663 11.7929 26.4816C11.8501 26.397 11.877 26.2955 11.8693 26.1936C11.8616 26.0917 11.8197 25.9955 11.7504 25.9204C11.6811 25.8453 11.5885 25.7959 11.4876 25.78Z" fill="#5AB0D3"/>
<path fill-rule="evenodd" clip-rule="evenodd" d="M2.7148 14.2069C2.59788 14.2195 2.48929 14.2734 2.40862 14.359C2.32794 14.4446 2.28048 14.5561 2.2748 14.6736C2.2748 15.4203 6.94147 15.2336 8.7948 15.1936C8.26258 16.0591 8.03278 17.0768 8.14147 18.0869C5.50686 18.1544 2.87927 18.3905 0.274802 18.7936C0.190125 18.8786 0.142578 18.9936 0.142578 19.1136C0.142578 19.2336 0.190125 19.3486 0.274802 19.4336C0.514802 19.6736 1.1148 19.5536 1.38147 19.5536C2.86147 19.5536 5.5548 19.6869 8.26147 19.6203C11.6748 19.5536 14.7148 19.2203 15.8748 19.2203C15.9809 19.2203 16.0826 19.1781 16.1576 19.1031C16.2327 19.0281 16.2748 18.9264 16.2748 18.8203C16.2748 18.7142 16.2327 18.6124 16.1576 18.5374C16.0826 18.4624 15.9809 18.4203 15.8748 18.4203C15.4348 18.4203 15.6081 18.4203 15.5415 18.2336C15.5754 17.5905 15.4742 16.9475 15.2446 16.3458C15.0149 15.7442 14.6619 15.1972 14.2081 14.7403L15.1548 14.6603C15.2609 14.6603 15.3626 14.6181 15.4376 14.5431C15.5127 14.4681 15.5548 14.3664 15.5548 14.2603C15.5548 14.1542 15.5127 14.0524 15.4376 13.9774C15.3626 13.9024 15.2609 13.8603 15.1548 13.8603L13.7148 13.7803C13.7148 13.7803 2.8748 14.1803 2.7148 14.2069ZM14.5948 18.2869C12.7681 18.1403 11.1548 18.0736 9.26147 18.0869C9.5948 17.1669 9.52814 17.4603 9.6348 17.1003C9.79338 16.4643 9.85186 15.8076 9.80814 15.1536C10.4615 15.1536 10.9281 15.1536 12.9815 14.8869C14.1415 16.6336 13.2748 15.9936 14.5948 18.2869Z" fill="#5AB0D3"/>
<path fill-rule="evenodd" clip-rule="evenodd" d="M19.5275 4.95354C19.6206 4.00294 19.53 3.04331 19.2608 2.12688C19.1142 1.68687 18.2608 1.68687 18.2608 2.12688C18.1007 3.09179 18.0249 4.06881 18.0342 5.04688C16.8475 5.12688 16.9808 5.12687 13.8475 5.48688C13.8475 4.03354 13.5142 2.30021 13.5275 2.22021C13.5275 1.56687 12.7142 1.78021 12.6875 2.22021C12.3568 5.63444 12.3568 9.07264 12.6875 12.4869C12.8208 13.3669 13.4608 13.2335 13.7008 12.6069C13.7651 12.0535 13.8007 11.4972 13.8075 10.9402C15.1408 11.3269 16.3675 10.8202 16.3408 10.3269C16.3214 10.2045 16.2577 10.0934 16.1619 10.0148C16.066 9.93618 15.9447 9.89541 15.8208 9.90021C15.1763 9.7687 14.5182 9.71498 13.8608 9.74021C13.8608 8.18021 13.9408 7.99354 13.8608 6.42021C15.2592 6.58107 16.6689 6.62122 18.0742 6.54021C18.1542 7.28688 18.2608 8.02021 18.3675 8.75354C18.3675 8.87377 18.4153 8.98908 18.5003 9.0741C18.5853 9.15911 18.7006 9.20687 18.8208 9.20687C18.9411 9.20687 19.0564 9.15911 19.1414 9.0741C19.2264 8.98908 19.2742 8.87377 19.2742 8.75354C19.2742 7.98021 19.4075 7.22021 19.4608 6.46021C20.8875 6.28688 21.1408 6.27354 21.4875 6.23354C22.1008 5.95354 22.1008 5.18021 21.3942 5.03354L19.5275 4.95354Z" fill="#5AB0D3"/>
<path fill-rule="evenodd" clip-rule="evenodd" d="M22.9536 1.23316C22.1136 -0.00683594 19.9136 0.113164 18.5936 -0.00683594C17.6202 -0.00683594 3.94022 0.139831 1.50022 0.566497C1.35554 0.577673 1.21536 0.621962 1.09051 0.695944C0.96567 0.769925 0.859506 0.871617 0.780225 0.993164C0.574888 1.48577 0.448882 2.0078 0.406891 2.53983C0.300225 3.69983 0.633558 14.1132 1.00689 14.5398C1.04301 14.5778 1.08644 14.6079 1.13458 14.6286C1.18271 14.6492 1.23453 14.6598 1.28689 14.6598C1.33926 14.6598 1.39108 14.6492 1.43921 14.6286C1.48734 14.6079 1.53078 14.5778 1.56689 14.5398C1.83356 14.2865 1.19356 4.33983 1.84689 2.03316C3.88689 1.7265 14.0869 1.59316 16.9402 1.4865H19.3269C19.9669 1.4865 21.5402 1.4865 21.9136 2.01983C22.4736 2.79316 22.2869 7.63316 22.1269 12.2732C22.111 12.3934 22.1435 12.515 22.2172 12.6113C22.291 12.7076 22.4 12.7706 22.5202 12.7865C22.6405 12.8024 22.7621 12.7699 22.8584 12.6961C22.9546 12.6224 23.0176 12.5134 23.0336 12.3932C23.2201 10.6485 23.3003 8.89419 23.2736 7.13983C23.4202 5.3265 24.0602 2.8465 22.9536 1.23316Z" fill="#5AB0D3"/>
<path fill-rule="evenodd" clip-rule="evenodd" d="M6.84788 22.1263C5.15455 22.2596 3.68788 22.7929 3.08788 22.6996C2.98356 22.6731 2.87298 22.6891 2.78046 22.7441C2.68794 22.7991 2.62107 22.8886 2.59455 22.9929C2.56802 23.0973 2.58403 23.2078 2.63904 23.3004C2.69405 23.3929 2.78356 23.4598 2.88788 23.4863C4.62095 23.7389 6.38148 23.7389 8.11455 23.4863C8.46121 23.4863 8.79455 23.3663 9.14121 23.3263L11.2345 23.1129C11.2941 23.1129 11.353 23.1012 11.408 23.0784C11.463 23.0556 11.513 23.0223 11.5551 22.9802C11.5972 22.9381 11.6306 22.8881 11.6534 22.8331C11.6762 22.7781 11.6879 22.7191 11.6879 22.6596C11.6879 22.6001 11.6762 22.5411 11.6534 22.4861C11.6306 22.4311 11.5972 22.3811 11.5551 22.3391C11.513 22.297 11.463 22.2636 11.408 22.2408C11.353 22.218 11.2941 22.2063 11.2345 22.2063C9.77804 22.0426 8.30939 22.0158 6.84788 22.1263Z" fill="#5AB0D3"/>
<path fill-rule="evenodd" clip-rule="evenodd" d="M31.2601 22.2731C30.4868 18.8065 27.2601 17.8598 23.9268 19.4998C23.106 16.9358 21.9397 14.4956 20.4601 12.2465C18.8601 10.3398 17.2468 11.1798 16.9401 13.0198C16.5268 15.4865 17.9268 20.0331 18.7401 22.6731C17.1935 21.8065 14.8601 21.2198 14.1801 22.6731C13.0201 25.3265 15.8201 27.4598 17.8868 29.7131C18.0335 29.8598 19.7401 31.3665 20.4068 31.8198C21.0735 32.2731 21.4735 31.8198 21.2468 31.3665C20.2787 30.7145 19.3845 29.9589 18.5801 29.1131C16.7801 26.9665 14.3801 24.9665 15.2468 23.2198C15.6468 22.4198 19.0868 24.0198 19.4468 24.9531C19.6068 25.3665 21.1001 25.6998 20.7801 24.4065C20.4601 23.1131 17.5401 13.9265 18.6735 12.7531C19.0335 12.3798 21.1535 15.4198 22.9535 20.6865C22.9866 20.7845 23.0421 20.8736 23.1155 20.9465C23.189 21.0194 23.2785 21.0742 23.3768 21.1065C23.4751 21.1388 23.5796 21.1479 23.682 21.1328C23.7844 21.1178 23.8819 21.0791 23.9668 21.0198C24.8267 20.4372 25.8148 20.0712 26.8468 19.9531C27.3365 19.8951 27.8329 19.9529 28.2961 20.122C28.7593 20.2911 29.1763 20.5666 29.5135 20.9265C30.8468 22.2598 30.8468 27.7265 30.6868 29.2465C30.6744 29.3667 30.7103 29.4869 30.7866 29.5807C30.8629 29.6745 30.9732 29.7341 31.0935 29.7465C31.2137 29.7588 31.3339 29.723 31.4277 29.6467C31.5215 29.5704 31.5811 29.46 31.5935 29.3398C31.7775 26.9796 31.6655 24.6056 31.2601 22.2731Z" fill="#5AB0D3"/>
<path fill-rule="evenodd" clip-rule="evenodd" d="M4.5548 6.31299C4.5548 6.73966 4.96814 7.12633 5.1548 7.35299C6.00814 8.37966 7.60814 8.40633 8.56814 8.92633C9.1948 9.233 9.5548 8.92633 8.56814 9.35299C7.7548 9.72633 5.74147 10.2197 5.5548 9.35299C5.5292 9.23677 5.45893 9.13528 5.35915 9.07042C5.25936 9.00556 5.13808 8.98254 5.02147 9.00633C4.28814 9.13966 4.58147 10.793 6.6348 10.8997C6.40814 11.353 6.86147 12.5797 7.3148 12.5797C7.76814 12.5797 8.2748 11.393 7.9148 10.8197C8.30011 10.7665 8.67956 10.6772 9.04814 10.553C9.7948 10.313 10.3815 10.0463 10.5548 9.31299C10.7281 8.57966 10.0215 7.993 9.28814 7.57966C8.5548 7.16633 6.68814 6.84633 6.2348 6.36633C6.2348 6.36633 6.04814 6.05966 5.94147 6.04633C6.20814 5.21966 8.60814 4.89966 8.72814 5.28633C8.75819 5.38888 8.82776 5.47529 8.92153 5.52655C9.0153 5.57781 9.12559 5.58972 9.22814 5.55966C9.33069 5.5296 9.4171 5.46004 9.46836 5.36627C9.51962 5.2725 9.53153 5.16221 9.50147 5.05966C9.3548 4.45966 8.58147 4.21966 7.96814 4.16633C8.08645 3.85053 8.0807 3.50163 7.95205 3.1899C7.8234 2.87817 7.58141 2.62677 7.2748 2.48633C7.12218 2.56339 6.98825 2.67288 6.88237 2.80713C6.77649 2.94137 6.70123 3.09714 6.66186 3.26352C6.62249 3.4299 6.61995 3.60287 6.65443 3.77034C6.68891 3.9378 6.75957 4.0957 6.86147 4.23299C5.6748 4.47299 4.54147 5.11299 4.5548 6.31299Z" fill="#5AB0D3"/>
</svg>
