<svg width="136" height="46" viewBox="0 0 136 46" fill="none" xmlns="http://www.w3.org/2000/svg">
<path d="M17.8527 24.6872C22.0981 24.3606 23.3005 20.9604 24.0575 18.2646C25.5455 18.6001 26.4737 19.2137 28.3029 21.0949C30.339 23.8286 31.192 25.5547 30.48 30.13C29.8268 33.2868 26.2553 37.0703 21.4449 37.6411H9.36182C8.16439 37.5323 7.83106 35.5351 9.36182 35.1374H16.9817C18.1792 35.0286 18.3305 32.7222 16.8729 32.416H7.29351C6.16713 32.3395 5.7181 30.4542 7.29351 29.9123H13.8249C15.3489 29.4769 15.3341 27.5275 13.8249 27.1909H10.3416C9.47061 27.082 8.9184 25.3301 10.3416 24.6872H17.8527Z" fill="#005792"/>
<path d="M7.29404 17.1761C14.4786 17.7205 21.2096 16.5785 24.0579 17.9381C24.118 14.894 23.7769 14.3722 23.2957 13.0397C21.6629 10.4271 20.102 8.86319 15.8935 8.25H7.6204C5.3344 8.68543 4.39187 9.0199 3.48406 11.6246C3.15728 14.7814 3.94091 16.3983 7.29404 17.1761Z" fill="#111827"/>
<rect x="3.04688" y="24.6875" width="4.78969" height="2.61256" rx="1.30628" fill="#111827"/>
<rect y="34.9199" width="6.96682" height="2.83027" rx="1.41513" fill="#111827"/>
<path d="M49.0785 32.5C48.4185 32.5 47.9085 32.33 47.5485 31.99C47.2085 31.63 47.0385 31.12 47.0385 30.46V13.39C47.0385 12.73 47.2085 12.23 47.5485 11.89C47.9085 11.53 48.4185 11.35 49.0785 11.35H56.2785C57.7585 11.35 59.0185 11.57 60.0585 12.01C61.0985 12.45 61.8885 13.08 62.4285 13.9C62.9885 14.72 63.2685 15.7 63.2685 16.84C63.2685 18.12 62.8985 19.2 62.1585 20.08C61.4185 20.96 60.4085 21.55 59.1285 21.85V21.4C60.6085 21.62 61.7585 22.18 62.5785 23.08C63.3985 23.98 63.8085 25.15 63.8085 26.59C63.8085 28.47 63.1685 29.93 61.8885 30.97C60.6285 31.99 58.8685 32.5 56.6085 32.5H49.0785ZM50.7285 29.59H56.1285C57.4885 29.59 58.4885 29.33 59.1285 28.81C59.7685 28.27 60.0885 27.47 60.0885 26.41C60.0885 25.33 59.7685 24.53 59.1285 24.01C58.4885 23.49 57.4885 23.23 56.1285 23.23H50.7285V29.59ZM50.7285 20.32H55.6185C56.9385 20.32 57.9185 20.07 58.5585 19.57C59.2185 19.05 59.5485 18.29 59.5485 17.29C59.5485 16.29 59.2185 15.54 58.5585 15.04C57.9185 14.52 56.9385 14.26 55.6185 14.26H50.7285V20.32ZM70.0328 32.5C69.3728 32.5 68.8628 32.33 68.5028 31.99C68.1628 31.63 67.9928 31.12 67.9928 30.46V13.39C67.9928 12.73 68.1628 12.23 68.5028 11.89C68.8628 11.53 69.3728 11.35 70.0328 11.35H80.7428C81.2428 11.35 81.6228 11.48 81.8828 11.74C82.1628 12 82.3028 12.37 82.3028 12.85C82.3028 13.35 82.1628 13.74 81.8828 14.02C81.6228 14.28 81.2428 14.41 80.7428 14.41H71.6828V20.23H80.0828C80.6028 20.23 80.9928 20.36 81.2528 20.62C81.5128 20.88 81.6428 21.26 81.6428 21.76C81.6428 22.26 81.5128 22.64 81.2528 22.9C80.9928 23.16 80.6028 23.29 80.0828 23.29H71.6828V29.44H80.7428C81.2428 29.44 81.6228 29.57 81.8828 29.83C82.1628 30.09 82.3028 30.47 82.3028 30.97C82.3028 31.47 82.1628 31.85 81.8828 32.11C81.6228 32.37 81.2428 32.5 80.7428 32.5H70.0328ZM88.2332 32.5C87.5732 32.5 87.0632 32.33 86.7032 31.99C86.3632 31.63 86.1932 31.12 86.1932 30.46V13.39C86.1932 12.73 86.3632 12.23 86.7032 11.89C87.0632 11.53 87.5732 11.35 88.2332 11.35H98.9432C99.4432 11.35 99.8232 11.48 100.083 11.74C100.363 12 100.503 12.37 100.503 12.85C100.503 13.35 100.363 13.74 100.083 14.02C99.8232 14.28 99.4432 14.41 98.9432 14.41H89.8832V20.23H98.2832C98.8032 20.23 99.1932 20.36 99.4532 20.62C99.7132 20.88 99.8432 21.26 99.8432 21.76C99.8432 22.26 99.7132 22.64 99.4532 22.9C99.1932 23.16 98.8032 23.29 98.2832 23.29H89.8832V29.44H98.9432C99.4432 29.44 99.8232 29.57 100.083 29.83C100.363 30.09 100.503 30.47 100.503 30.97C100.503 31.47 100.363 31.85 100.083 32.11C99.8232 32.37 99.4432 32.5 98.9432 32.5H88.2332Z" fill="black"/>
<path d="M103.786 32.71C103.226 32.73 102.786 32.58 102.466 32.26C102.146 31.94 101.986 31.53 101.986 31.03C101.986 30.65 102.106 30.32 102.346 30.04C102.566 29.74 102.896 29.58 103.336 29.56L104.236 29.5C105.116 29.44 105.776 29.17 106.216 28.69C106.676 28.19 106.906 27.48 106.906 26.56V13.06C106.906 12.42 107.066 11.94 107.386 11.62C107.726 11.28 108.206 11.11 108.826 11.11C109.446 11.11 109.916 11.28 110.236 11.62C110.576 11.94 110.746 12.42 110.746 13.06V26.53C110.746 27.79 110.516 28.86 110.056 29.74C109.616 30.62 108.956 31.31 108.076 31.81C107.196 32.29 106.106 32.57 104.806 32.65L103.786 32.71ZM115.831 32.74C115.351 32.74 114.961 32.63 114.661 32.41C114.381 32.19 114.211 31.9 114.151 31.54C114.091 31.16 114.161 30.74 114.361 30.28L122.281 12.73C122.541 12.15 122.851 11.74 123.211 11.5C123.591 11.24 124.021 11.11 124.501 11.11C124.961 11.11 125.371 11.24 125.731 11.5C126.111 11.74 126.431 12.15 126.691 12.73L134.641 30.28C134.861 30.74 134.941 31.16 134.881 31.54C134.821 31.92 134.651 32.22 134.371 32.44C134.091 32.64 133.721 32.74 133.261 32.74C132.701 32.74 132.261 32.61 131.941 32.35C131.641 32.07 131.371 31.65 131.131 31.09L129.181 26.56L130.801 27.61H118.141L119.761 26.56L117.841 31.09C117.581 31.67 117.311 32.09 117.031 32.35C116.751 32.61 116.351 32.74 115.831 32.74ZM124.441 15.52L120.241 25.51L119.461 24.55H129.481L128.731 25.51L124.501 15.52H124.441Z" fill="#005792"/>
</svg>
