<svg width="33" height="33" viewBox="0 0 33 33" fill="none" xmlns="http://www.w3.org/2000/svg">
<path d="M18.7597 18.273C23.221 17.9298 24.4846 14.3567 25.28 11.5239C26.8436 11.8765 27.819 12.5213 29.7412 14.4981C31.8809 17.3707 32.7772 19.1846 32.029 23.9925C31.3427 27.3099 27.5896 31.2856 22.5346 31.8855H9.83719C8.57889 31.7711 8.22861 29.6724 9.83719 29.2545H17.8445C19.1028 29.1401 19.2619 26.7165 17.7301 26.3947H7.66373C6.48009 26.3143 6.00823 24.3331 7.66373 23.7637H14.5271C16.1287 23.3062 16.1131 21.2577 14.5271 20.904H10.8668C9.95151 20.7896 9.37122 18.9486 10.8668 18.273H18.7597Z" fill="#005792" stroke="#005792" stroke-width="1.13761"/>
<path d="M7.66503 10.3799C15.2148 10.952 22.288 9.75187 25.2812 11.1807C25.3443 7.98181 24.9859 7.43343 24.4802 6.0332C22.7644 3.28782 21.1241 1.64437 16.7017 1H8.00798C5.60576 1.45756 4.61531 1.80904 3.66135 4.54611C3.31796 7.86345 4.14142 9.5626 7.66503 10.3799Z" fill="#111827" stroke="#111827" stroke-width="1.13761"/>
<rect x="3.20312" y="18.2729" width="5.0332" height="2.74538" rx="1.37269" fill="#111827"/>
<rect y="29.0259" width="7.32101" height="2.97416" rx="1.48708" fill="#111827"/>
</svg>
