<svg width="32" height="32" viewBox="0 0 32 32" fill="none" xmlns="http://www.w3.org/2000/svg">
<g clip-path="url(#clip0_2903_80352)">
<path fill-rule="evenodd" clip-rule="evenodd" d="M17.721 6.1861C17.6277 5.89276 17.4944 5.6261 17.401 5.33276C17.291 4.97178 17.2151 4.60127 17.1744 4.2261C17.1799 4.17492 17.1748 4.12315 17.1594 4.07404C17.144 4.02493 17.1185 3.97955 17.0847 3.94073C17.0509 3.90191 17.0095 3.87051 16.9629 3.84849C16.9164 3.82646 16.8658 3.8143 16.8144 3.81276C16.714 3.80906 16.6161 3.84457 16.5415 3.91176C16.4668 3.97895 16.4212 4.07256 16.4144 4.17276C16.2082 5.0497 16.2082 5.96249 16.4144 6.83943C16.5359 7.33231 16.7102 7.81064 16.9344 8.2661C17.0944 8.61276 17.2277 8.61276 17.4144 8.83943C17.601 9.0661 18.3344 9.09276 18.3744 8.63943C18.201 7.9061 18.241 7.8261 18.0144 7.09276C17.9344 6.7461 17.8277 6.4661 17.721 6.1861Z" fill="#D69BA8"/>
<path fill-rule="evenodd" clip-rule="evenodd" d="M22.8013 3.99946C22.7153 3.94673 22.6126 3.92842 22.5137 3.9482C22.4148 3.96798 22.327 4.02439 22.2679 4.10613C21.7041 4.74522 21.2532 5.47566 20.9346 6.26613C20.7646 6.69995 20.6265 7.14557 20.5213 7.59946C20.3713 7.98688 20.2901 8.39747 20.2812 8.81279C20.2813 9.37279 20.8012 9.39946 21.3079 9.05279C21.5743 8.67109 21.7852 8.25362 21.9346 7.81279C22.0993 7.37716 22.2373 6.93189 22.3479 6.47946C22.4753 5.80916 22.6673 5.15276 22.9213 4.51946C22.9688 4.43321 22.9828 4.33247 22.9606 4.23652C22.9385 4.14058 22.8817 4.05617 22.8013 3.99946Z" fill="#D69BA8"/>
<path fill-rule="evenodd" clip-rule="evenodd" d="M15.2133 8.06649C14.2769 7.52942 13.416 6.87032 12.6533 6.10649C12.3031 5.72757 12.0329 5.28197 11.8588 4.79632C11.6847 4.31066 11.6103 3.7949 11.6399 3.27982C11.6401 2.88935 11.6848 2.50016 11.7733 2.11982C11.8399 1.85316 11.9066 1.57316 12.1199 1.45316C12.2309 1.39477 12.3545 1.36425 12.4799 1.36425C12.6054 1.36425 12.7289 1.39477 12.8399 1.45316C13.354 1.69751 13.8374 2.00185 14.2799 2.35982C14.6991 2.69773 15.1927 2.93084 15.7199 3.03982C16.0749 3.08902 16.4361 3.01866 16.7466 2.83983C17.1631 2.5792 17.5402 2.26043 17.8666 1.89316C18.0533 1.70649 18.2266 1.47982 18.4666 1.45316C18.8179 1.4157 19.1731 1.45668 19.5066 1.57316C20.4975 2.11827 21.5618 2.51793 22.6666 2.75982C22.9718 2.77507 23.2776 2.7436 23.5733 2.66649C24.4266 2.43982 25.1466 1.74649 26.0666 1.65316C26.2527 1.6335 26.4404 1.6335 26.6266 1.65316C26.7916 1.66012 26.9541 1.69623 27.1066 1.75982C27.6399 1.95982 27.9466 2.13316 28.0266 2.39982C28.0387 2.50937 28.0283 2.62023 27.9962 2.72566C27.9641 2.83109 27.911 2.92891 27.8399 3.01316C27.1466 4.09316 25.4133 5.23983 24.8399 6.05316C24.3229 6.85278 23.851 7.68075 23.4266 8.53316C23.0933 9.13316 24.0133 9.11983 24.3199 8.53316C24.9066 7.78649 25.0799 7.33316 25.6533 6.57316C26.3441 5.88196 27.079 5.23617 27.8533 4.63982C28.4678 4.14201 28.9299 3.48126 29.1866 2.73316C29.3599 1.95982 29.0533 1.13316 27.5866 0.493158C27.319 0.377365 27.0361 0.301014 26.7466 0.266492C26.4758 0.246491 26.204 0.246491 25.9333 0.266492C25.0797 0.460129 24.2581 0.774398 23.4933 1.19982C23.2604 1.29237 23.0102 1.33331 22.7599 1.31982C21.6399 1.23982 20.9199 0.519825 19.9999 0.199825C19.4528 0.00775693 18.8699 -0.0605507 18.2933 -0.000175156C17.9442 0.0485672 17.6136 0.186319 17.3333 0.399825C16.9999 0.653158 16.6799 1.01316 16.3466 1.31982C16.0133 1.62649 16.0399 1.66649 15.8266 1.63982C15.5352 1.55627 15.2633 1.41578 15.0266 1.22649C14.502 0.826201 13.934 0.48628 13.3333 0.213158C13.033 0.086789 12.7069 0.0341614 12.3821 0.0596781C12.0573 0.0851948 11.7434 0.188114 11.4666 0.359825C11.1194 0.592327 10.861 0.935324 10.7333 1.33316C10.5331 1.97105 10.4429 2.63835 10.4666 3.30649C10.4652 3.95089 10.5917 4.58915 10.8389 5.18425C11.0861 5.77935 11.449 6.31943 11.9066 6.77316C12.8409 7.59122 13.9041 8.249 15.0533 8.71983C15.5199 8.90649 15.7733 8.45316 15.2133 8.06649Z" fill="#D69BA8"/>
<path fill-rule="evenodd" clip-rule="evenodd" d="M15.8936 10.2267C16.5936 10.4571 17.3058 10.6485 18.027 10.8C18.4681 10.8757 18.9133 10.9247 19.3603 10.9467C19.8042 10.9795 20.2498 10.9795 20.6936 10.9467C21.2936 10.9467 24.7603 10.2934 24.507 9.61337C24.5032 9.55393 24.4862 9.49607 24.4572 9.44404C24.4283 9.392 24.388 9.34709 24.3395 9.31259C24.2909 9.27809 24.2353 9.25487 24.1766 9.24463C24.1179 9.23438 24.0577 9.23737 24.0003 9.25337C21.6944 9.69258 19.329 9.71966 17.0136 9.33337C16.3613 9.20827 15.7025 9.11925 15.0403 9.0667C13.6912 8.67095 12.2531 8.69887 10.9203 9.1467C10.0335 9.46894 9.19818 9.91806 8.44031 10.48C7.34698 11.2667 6.37364 12.24 5.34698 13.1467H5.33364C4.97416 13.1839 4.61773 13.2463 4.26698 13.3334C3.86912 13.4541 3.48128 13.6057 3.10698 13.7867C2.34627 14.1612 1.67715 14.6983 1.14698 15.36C0.755601 15.8588 0.51917 16.4615 0.466978 17.0934C0.450479 17.2581 0.467865 17.4245 0.518065 17.5822C0.568265 17.74 0.650218 17.8858 0.75888 18.0107C0.867542 18.1356 1.00061 18.2369 1.14991 18.3085C1.2992 18.38 1.46155 18.4203 1.62698 18.4267C2.52374 18.4686 3.41453 18.2609 4.20031 17.8267C4.43955 17.6713 4.66285 17.4927 4.86698 17.2934C5.08648 17.1139 5.28748 16.9129 5.46698 16.6934C5.79927 16.318 6.08162 15.9012 6.30698 15.4534C6.51086 15.0311 6.65448 14.5822 6.73364 14.12C6.74738 14.0657 6.74992 14.0091 6.74111 13.9538C6.7323 13.8984 6.71232 13.8454 6.68238 13.798C6.65245 13.7506 6.61319 13.7098 6.56699 13.6781C6.52079 13.6463 6.46862 13.6243 6.41364 13.6134C6.35218 13.5996 6.28844 13.5996 6.22698 13.6134C7.21364 12.96 8.20031 12.28 9.20031 11.6667C9.91125 11.2227 10.6557 10.8349 11.427 10.5067C12.251 10.1514 13.1311 9.94381 14.027 9.89337C14.6653 9.87744 15.3003 9.99082 15.8936 10.2267ZM5.89364 13.92C5.78925 14.3064 5.62745 14.675 5.41364 15.0134C5.2048 15.3541 4.94385 15.6601 4.64031 15.92C4.4674 16.0779 4.28482 16.2249 4.09364 16.36C3.90688 16.5046 3.70584 16.6297 3.49364 16.7334C3.1852 16.8596 2.86299 16.9491 2.53364 17C2.3357 17.0431 2.13533 17.0743 1.93364 17.0934C1.97247 16.6516 2.15514 16.2347 2.45364 15.9067C2.77915 15.4664 3.17568 15.0834 3.62698 14.7734C3.9275 14.5701 4.2441 14.3918 4.57364 14.24C4.88443 14.0956 5.21112 13.9882 5.54698 13.92C5.66856 13.9402 5.79319 13.9114 5.89364 13.84L5.98698 13.7734C5.98698 13.7734 5.90698 13.8534 5.89364 13.92Z" fill="#D69BA8"/>
<path fill-rule="evenodd" clip-rule="evenodd" d="M30.946 21.24C30.0393 19.3733 28.2794 17.76 27.106 16.04C26.5983 15.2734 26.1821 14.4501 25.866 13.5867C25.3993 12.4 25.066 11.64 24.6793 10.44C24.546 10.1333 23.7727 10.56 24.0127 10.92C24.3727 12.1067 24.5327 12.7467 24.9593 13.9333C25.3131 14.8648 25.7598 15.7582 26.2927 16.6C27.2127 18.0667 28.6127 19.4533 29.5327 20.9867C30.1499 21.8888 30.4328 22.9782 30.3327 24.0667C29.8927 27.5333 27.106 29.4 23.666 30.1733C20.6757 30.7831 17.5799 30.6272 14.666 29.72C12.744 29.1969 10.9808 28.2077 9.53268 26.84C8.52161 25.8004 7.93245 24.4225 7.87935 22.9733C7.88263 20.6468 8.45967 18.3569 9.55935 16.3067C10.1138 15.2318 10.8038 14.2325 11.6127 13.3333C12.3736 12.4345 13.2124 11.6046 14.1193 10.8533C14.626 10.1333 14.1193 10.0133 13.3993 10.3733C12.5187 11.1062 11.6941 11.9039 10.9327 12.76C10.0542 13.7146 9.29317 14.771 8.66602 15.9067C7.41817 18.077 6.7308 20.524 6.66602 23.0267C6.68552 24.7982 7.37094 26.4974 8.58602 27.7867C10.1646 29.3565 12.1136 30.503 14.2527 31.12C17.396 32.0977 20.7367 32.2583 23.9593 31.5867C27.9593 30.68 31.0793 28.28 31.5193 24.2133C31.6028 23.1885 31.4046 22.1603 30.946 21.24Z" fill="#D69BA8"/>
<path fill-rule="evenodd" clip-rule="evenodd" d="M21.8319 19.0753C20.9534 18.8333 20.0262 18.7518 19.1093 18.8357C18.7617 18.8479 18.4139 18.8186 18.0757 18.7486C17.9611 18.7328 17.8524 18.694 17.7583 18.6354C17.6642 18.5767 17.5873 18.4999 17.5337 18.411C17.1681 17.7468 17.6471 17.3221 18.3278 17.039C19.1594 16.7496 20.071 16.6777 20.9496 16.8321C21.0414 16.8523 21.1388 16.8409 21.2211 16.8002C21.3034 16.7596 21.3642 16.6929 21.3907 16.6143C21.4141 16.5349 21.4009 16.4508 21.3539 16.3797C21.3068 16.3086 21.2297 16.2561 21.1386 16.2332C20.6395 16.1049 20.1216 16.0389 19.6009 16.0372L19.6765 15.8194C19.6895 15.7071 19.6895 15.5941 19.6765 15.4818C19.6883 15.3732 19.6883 15.2638 19.6765 15.1551C19.4874 14.0662 19.3614 14.0118 19.0967 14.0009C18.832 13.99 18.6555 14.0662 18.4034 15.0898C18.3919 15.2021 18.3919 15.3151 18.4034 15.4274C18.3898 15.5432 18.3898 15.66 18.4034 15.7758C18.4295 15.8863 18.4632 15.9954 18.5042 16.1025C18.1183 16.1651 17.7448 16.2751 17.395 16.4292C17.1441 16.5248 16.9183 16.6637 16.7316 16.8372C16.5449 17.0108 16.4012 17.2155 16.3091 17.4387C16.2171 17.6619 16.1788 17.899 16.1964 18.1355C16.2141 18.3719 16.2874 18.6028 16.4119 18.8139C16.5169 19.0567 16.6852 19.2753 16.9038 19.4528C17.1224 19.6303 17.3854 19.762 17.6723 19.8375C18.5388 19.9886 19.4241 20.0435 20.3067 20.0009C20.9117 20.0009 21.479 20.0009 21.6302 20.5453C21.7815 21.0898 21.2269 21.5363 20.521 21.8085C19.7328 22.1194 18.8568 22.2254 18.0001 22.1134C17.7551 22.0667 17.5236 21.9778 17.3194 21.852C17.0975 21.6966 16.887 21.5293 16.6892 21.3511C16.6137 21.2866 16.5117 21.2505 16.4056 21.2505C16.2994 21.2505 16.1975 21.2866 16.122 21.3511C16.0834 21.3827 16.0527 21.4207 16.0318 21.4628C16.0108 21.5049 16 21.5503 16 21.5961C16 21.642 16.0108 21.6874 16.0318 21.7295C16.0527 21.7716 16.0834 21.8096 16.122 21.8412C16.3808 22.1175 16.677 22.3661 17.0043 22.5816C17.2486 22.731 17.5218 22.8416 17.811 22.9083C18.1072 22.9779 18.4117 23.0181 18.7185 23.0281V23.1805C18.706 23.2928 18.706 23.4058 18.7185 23.5181C18.7061 23.6267 18.7061 23.7362 18.7185 23.8448C18.9076 24.9337 19.0336 24.9882 19.2857 24.999C19.5378 25.0099 19.7395 24.9446 19.9916 23.9101V23.5617C20.0046 23.4458 20.0046 23.3291 19.9916 23.2132C19.9722 23.1392 19.9469 23.0664 19.916 22.9954C20.5038 22.9224 21.0741 22.768 21.605 22.5381C22.0815 22.3592 22.4746 22.0473 22.7215 21.6524C22.9683 21.2575 23.0545 20.8025 22.9663 20.3602C22.9213 20.0798 22.7932 19.8142 22.5944 19.589C22.3957 19.3639 22.133 19.187 21.8319 19.0753Z" fill="#D69BA8"/>
</g>
<defs>
<clipPath id="clip0_2903_80352">
<rect width="32" height="32" fill="white"/>
</clipPath>
</defs>
</svg>
