<svg width="32" height="32" viewBox="0 0 32 32" fill="none" xmlns="http://www.w3.org/2000/svg">
<g clip-path="url(#clip0_2903_80297)">
<path fill-rule="evenodd" clip-rule="evenodd" d="M19.28 7.07982C19.3042 7.02473 19.3171 6.96539 19.3181 6.90526C19.3191 6.84512 19.3081 6.7854 19.2857 6.72955C19.2634 6.67371 19.2302 6.62287 19.188 6.58C19.1458 6.53712 19.0955 6.50307 19.04 6.47982C18.3639 6.17173 17.6444 5.96937 16.9067 5.87982V4.71982C16.9185 4.59857 16.8837 4.47738 16.8094 4.38082C16.7351 4.28426 16.6269 4.21956 16.5067 4.19982C16.4479 4.19044 16.3877 4.19311 16.3299 4.20768C16.2721 4.22224 16.2179 4.2484 16.1705 4.28456C16.1231 4.32072 16.0836 4.36612 16.0543 4.41803C16.025 4.46993 16.0065 4.52724 16 4.58649C15.8934 4.98649 15.8267 5.41316 15.72 5.82649C15.5692 5.81315 15.4175 5.81315 15.2667 5.82649C14.7083 5.85373 14.1764 6.07294 13.761 6.44707C13.3456 6.8212 13.0721 7.32731 12.9867 7.87982C12.9243 8.16855 12.9228 8.46714 12.9825 8.75645C13.0422 9.04576 13.1617 9.3194 13.3334 9.55982C13.5311 9.78717 13.7747 9.97005 14.0482 10.0965C14.3216 10.2229 14.6188 10.2899 14.92 10.2932H15.0667V11.0932C15.0667 11.5998 15.1467 12.0798 15.2 12.5732H14.8534C14.4387 12.4553 14.0498 12.2608 13.7067 11.9998C13.5999 11.9169 13.4649 11.8789 13.3305 11.8938C13.1961 11.9088 13.0728 11.9755 12.9867 12.0798C12.9436 12.1331 12.9115 12.1945 12.8922 12.2602C12.8728 12.326 12.8667 12.395 12.8742 12.4631C12.8816 12.5313 12.9024 12.5973 12.9355 12.6574C12.9685 12.7174 13.0131 12.7704 13.0667 12.8132C13.5182 13.207 14.0442 13.5062 14.6134 13.6932C14.8653 13.7689 15.1245 13.818 15.3867 13.8398C15.3867 14.0932 15.3867 14.3465 15.4534 14.5865C15.4533 14.6553 15.4672 14.7235 15.4943 14.7867C15.5214 14.85 15.5612 14.9071 15.6111 14.9545C15.661 15.0019 15.72 15.0387 15.7846 15.0625C15.8492 15.0864 15.918 15.0968 15.9867 15.0932C16.0556 15.0933 16.1237 15.0793 16.187 15.0522C16.2502 15.0251 16.3073 14.9854 16.3547 14.9355C16.4022 14.8855 16.4389 14.8265 16.4627 14.7619C16.4866 14.6973 16.497 14.6286 16.4934 14.5598C16.4934 14.2932 16.4934 14.0265 16.56 13.7598C17.0163 13.6738 17.4506 13.4974 17.8376 13.2409C18.2246 12.9844 18.5564 12.6531 18.8134 12.2665C18.983 11.9415 19.0793 11.5832 19.0954 11.2169C19.1116 10.8506 19.0471 10.4852 18.9067 10.1465C18.8146 9.8799 18.6706 9.63422 18.4829 9.42367C18.2952 9.21311 18.0677 9.04186 17.8134 8.91982C17.5216 8.80989 17.2169 8.73819 16.9067 8.70649V8.17316V7.03982C17.5029 7.04681 18.0952 7.13656 18.6667 7.30649C18.7783 7.3566 18.905 7.36093 19.0197 7.31854C19.1344 7.27615 19.2279 7.19043 19.28 7.07982ZM17.3334 11.7598C17.1608 11.9781 16.9423 12.1556 16.6934 12.2798C16.6934 11.8932 16.76 11.5198 16.7867 11.1198C16.8134 10.7198 16.7867 10.6532 16.7867 10.4265C16.8899 10.4378 16.9883 10.4757 17.0725 10.5365C17.1566 10.5973 17.2235 10.6788 17.2667 10.7732C17.3663 10.9161 17.4251 11.0834 17.4369 11.2572C17.4486 11.4311 17.4128 11.6048 17.3334 11.7598ZM15.0667 8.54649C14.9067 8.54649 14.76 8.54649 14.7067 8.45316C14.6583 8.40506 14.6222 8.34605 14.6013 8.28109C14.5804 8.21613 14.5754 8.14711 14.5867 8.07982C14.6079 7.85178 14.7046 7.63735 14.8617 7.47065C15.0187 7.30395 15.227 7.19454 15.4534 7.15982C15.3867 7.46649 15.2934 7.75982 15.2534 8.06649C15.2134 8.37316 15.2534 8.39982 15.2534 8.55982L15.0667 8.54649Z" fill="#F6B73E"/>
<path fill-rule="evenodd" clip-rule="evenodd" d="M9.33375 12.9065C9.52042 14.5598 9.74708 16.2132 10.0404 17.8398C10.05 17.8998 10.0716 17.9572 10.1038 18.0086C10.1361 18.0601 10.1783 18.1046 10.2281 18.1394C10.2778 18.1742 10.334 18.1987 10.3934 18.2114C10.4528 18.224 10.5141 18.2246 10.5737 18.2132C10.6332 18.2052 10.6903 18.1851 10.7417 18.1543C10.7931 18.1234 10.8376 18.0824 10.8726 18.0337C10.9075 17.985 10.9322 17.9297 10.945 17.8711C10.9578 17.8126 10.9585 17.752 10.9471 17.6932C10.6671 16.0665 10.5337 14.4398 10.4137 12.7998C10.2537 10.3465 10.2004 7.87982 10.1604 5.41316C10.1604 4.74649 10.0137 3.74649 10.0004 2.81316C9.97165 2.47599 9.97165 2.13699 10.0004 1.79982C10.8265 1.75527 11.6543 1.75527 12.4804 1.79982L20.0937 1.89316L22.2271 1.79982C22.2937 2.94649 22.0004 5.25316 22.0004 5.54649C22.0455 8.28778 21.9431 11.0295 21.6938 13.7598C21.4928 15.5629 21.145 17.3466 20.6537 19.0932C20.6313 19.1587 20.6225 19.2282 20.6279 19.2974C20.6334 19.3665 20.653 19.4337 20.6855 19.495C20.718 19.5562 20.7627 19.6101 20.8169 19.6534C20.871 19.6967 20.9335 19.7283 21.0004 19.7465C21.0652 19.7669 21.1334 19.774 21.201 19.7675C21.2685 19.761 21.3341 19.741 21.3938 19.7087C21.4535 19.6764 21.5061 19.6324 21.5485 19.5793C21.5908 19.5262 21.6221 19.4652 21.6404 19.3998C22.2196 17.613 22.6434 15.7795 22.9071 13.9198C23.2911 11.1614 23.5226 8.3838 23.6004 5.59982C23.8249 4.21001 23.9585 2.80703 24.0004 1.39982C23.9953 1.19282 23.942 0.989865 23.8448 0.807033C23.7476 0.624202 23.6091 0.466522 23.4404 0.346489C23.1593 0.201454 22.8498 0.119547 22.5337 0.106489C21.8137 0.106489 20.7204 0.199822 20.2804 0.186489L12.6004 0.0931554C11.595 0.0578691 10.5884 0.0890482 9.58708 0.186489C9.40327 0.209589 9.22719 0.274472 9.07234 0.376165C8.91749 0.477857 8.78798 0.613658 8.69375 0.773155C8.49341 1.28678 8.3982 1.83539 8.41375 2.38649C8.41375 3.43982 8.65375 4.69316 8.69375 5.46649C8.84042 7.99982 9.01375 10.4398 9.33375 12.9065Z" fill="#F6B73E"/>
<path fill-rule="evenodd" clip-rule="evenodd" d="M31.4932 17.2527C31.5909 17.1783 31.6574 17.0701 31.6796 16.9492C31.7018 16.8284 31.6781 16.7036 31.6132 16.5994C31.6132 16.5994 30.4932 14.586 30.0932 14.0127C29.8445 13.6654 29.5774 13.3315 29.2932 13.0127C29.0203 12.6913 28.7263 12.3884 28.4132 12.106C27.6808 11.4316 26.8961 10.8164 26.0665 10.266C26.0266 10.2228 25.9781 10.1883 25.9242 10.1647C25.8702 10.1411 25.812 10.129 25.7532 10.129C25.6943 10.129 25.6361 10.1411 25.5822 10.1647C25.5282 10.1883 25.4798 10.2228 25.4398 10.266C25.3941 10.3073 25.3576 10.3577 25.3325 10.4139C25.3075 10.4702 25.2946 10.5311 25.2946 10.5927C25.2946 10.6543 25.3075 10.7152 25.3325 10.7714C25.3576 10.8277 25.3941 10.8781 25.4398 10.9194C25.4398 10.9194 26.2532 12.1194 27.4398 13.586C27.8398 14.066 28.2932 14.546 28.7732 15.026C29.2532 15.506 29.9065 16.2127 30.3998 16.786C30.3998 18.5194 30.3998 20.4927 30.2665 22.4927C30.2425 23.8404 30.0726 25.1816 29.7598 26.4927C29.4632 27.5322 28.9548 28.4991 28.2665 29.3327C26.9332 29.986 23.8665 29.9727 22.2132 30.0394C20.1332 30.1194 18.0398 30.106 15.9465 30.106H12.1998H9.69317C8.27984 30.106 6.89317 29.986 5.47984 29.9327H3.99984C3.03984 29.6527 2.6665 29.4127 2.07984 27.3994C1.93418 26.5176 1.85397 25.6263 1.83984 24.7327C1.83984 24.0527 1.83984 23.3994 1.75984 22.6527C1.67984 21.906 1.75984 21.506 1.75984 20.946V18.2794L1.65317 15.9594C1.70762 15.9844 1.76661 15.998 1.8265 15.9994C2.40564 15.331 3.03407 14.7071 3.7065 14.1327C4.17317 13.7194 4.6265 13.3194 5.03984 12.9194C6.2265 11.7194 7.1065 10.666 7.1065 10.666C7.15612 10.6315 7.19833 10.5874 7.23064 10.5363C7.26296 10.4852 7.28472 10.4281 7.29466 10.3685C7.3046 10.3089 7.30251 10.2478 7.28852 10.189C7.27452 10.1302 7.2489 10.0748 7.21317 10.026C7.14116 9.9287 7.03416 9.86317 6.91474 9.84327C6.79532 9.82336 6.67285 9.85065 6.57317 9.91935C5.73045 10.3322 4.93095 10.828 4.1865 11.3994C3.87135 11.6368 3.56872 11.8905 3.27984 12.1594C2.99984 12.4394 2.73317 12.7327 2.4665 13.0394C0.186504 15.906 0.626504 15.5594 0.346504 18.426C0.253171 19.4527 -0.000162542 20.7727 -0.000162542 22.186C-0.0344841 23.4846 0.0863713 24.7827 0.359837 26.0527C1.33317 30.3727 0.653171 30.4794 5.33317 31.0794C6.75984 31.266 8.15984 31.546 9.5865 31.666C10.7598 31.7594 11.9865 31.8527 13.1998 31.8927C14.9865 31.8927 16.8132 31.8927 18.6265 31.826C27.7998 31.3594 30.4398 31.2394 31.6532 25.386C31.9164 24.1327 32.0327 22.8529 31.9998 21.5727C31.9126 20.1243 31.7434 18.682 31.4932 17.2527Z" fill="#F6B73E"/>
<path fill-rule="evenodd" clip-rule="evenodd" d="M4.0792 28.1336C5.2392 27.3336 6.18587 26.2802 7.2792 25.4669C8.37253 24.6536 9.5592 23.4402 10.9459 22.3069C11.1992 22.1069 11.4525 21.8936 11.7059 21.7069C12.588 20.9021 13.648 20.3173 14.7992 20.0002C15.255 20.0117 15.6948 20.1708 16.0525 20.4536C16.8373 20.9891 17.5816 21.5818 18.2792 22.2269C23.3592 26.5069 22.3725 25.5069 25.0792 27.8536C25.6792 28.3869 25.6792 28.3869 26.2525 28.9336C26.8259 29.4802 27.6925 28.6536 27.0392 28.1069C26.1325 27.1602 25.9592 26.9869 24.9859 26.0802C24.0125 25.1736 22.8392 24.1202 21.7592 23.1469C22.5059 22.5336 23.2659 21.9336 23.9592 21.2802C24.6525 20.6269 25.1859 20.0669 25.7725 19.4536C26.6444 18.5069 27.5751 17.6163 28.5592 16.7869C28.6154 16.6995 28.6442 16.5973 28.6417 16.4934C28.6393 16.3895 28.6058 16.2887 28.5455 16.204C28.4852 16.1193 28.401 16.0547 28.3036 16.0183C28.2062 15.982 28.1002 15.9757 27.9992 16.0002C26.689 16.7268 25.456 17.5845 24.3192 18.5602C23.6544 19.1384 23.0307 19.7621 22.4525 20.4269C21.9059 21.0536 21.3992 21.7602 20.8925 22.3736C20.3859 21.9202 19.8792 21.4669 19.3859 21.0402C18.5107 20.1409 17.5354 19.3446 16.4792 18.6669C15.8833 18.319 15.1922 18.1696 14.5059 18.2402C13.4218 18.4645 12.3987 18.9192 11.5059 19.5736C10.997 19.9382 10.5116 20.3345 10.0525 20.7602C9.4392 20.2002 8.85253 19.6402 8.17253 19.0536C7.73253 18.6669 7.26587 18.3069 6.8392 17.9336C6.41253 17.5602 5.89253 17.2136 5.50587 16.8402C5.07541 16.4527 4.67431 16.0338 4.30587 15.5869C4.27073 15.529 4.22406 15.479 4.16876 15.44C4.11346 15.4009 4.05072 15.3737 3.98443 15.3599C3.91814 15.3461 3.84973 15.3462 3.78346 15.36C3.71718 15.3738 3.65446 15.4011 3.5992 15.4402C3.48585 15.5141 3.40574 15.6292 3.37586 15.7611C3.34599 15.8931 3.36871 16.0314 3.4392 16.1469C3.97446 17.1237 4.6431 18.0212 5.42587 18.8136C5.7497 19.1616 6.0972 19.4868 6.46587 19.7869C6.81873 20.0932 7.19301 20.3739 7.58587 20.6269C8.1592 20.9869 8.6792 21.2536 9.2392 21.5469C8.1992 22.5336 7.25253 23.5469 6.49253 24.2136C5.35173 25.0985 4.3101 26.1044 3.38587 27.2136C2.85253 28.0002 3.1992 28.7469 4.0792 28.1336Z" fill="#F6B73E"/>
</g>
<defs>
<clipPath id="clip0_2903_80297">
<rect width="32" height="32" fill="white"/>
</clipPath>
</defs>
</svg>
