<svg width="32" height="32" viewBox="0 0 32 32" fill="none" xmlns="http://www.w3.org/2000/svg">
<g clip-path="url(#clip0_2903_80384)">
<path fill-rule="evenodd" clip-rule="evenodd" d="M31.0799 10.0396C30.4019 9.42753 29.5347 9.06596 28.6227 9.01502C27.7106 8.96408 26.8086 9.22685 26.0666 9.75963C25.4464 10.3134 24.9741 11.013 24.6924 11.7953C24.4107 12.5775 24.3285 13.4176 24.4532 14.2396C24.4023 14.3735 24.3253 14.4958 24.2266 14.5996C23.5866 13.9596 23.4666 13.7063 23.1332 13.5063C22.7687 13.3222 22.3713 13.212 21.9639 13.1823C21.5566 13.1525 21.1474 13.2037 20.7599 13.333C20.3935 13.4616 20.0889 13.7234 19.9066 14.0663C19.0873 14.4108 18.4165 15.0343 18.0132 15.8263C17.4132 17.293 18.3466 18.493 19.1599 19.693C19.5591 20.2874 20.005 20.8492 20.4932 21.373C21.859 22.5531 23.4789 23.4018 25.2266 23.853C25.6324 23.8747 26.0374 23.7975 26.4067 23.6279C26.776 23.4584 27.0986 23.2016 27.3466 22.8796C28.1999 21.9063 29.2932 20.4396 28.9332 19.253C28.3199 17.173 26.3999 17.093 27.1066 18.1463C27.4664 18.5351 27.7512 18.9872 27.9466 19.4796C27.9653 19.612 27.9561 19.7469 27.9197 19.8756C27.8833 20.0042 27.8204 20.1238 27.735 20.2268C27.6496 20.3297 27.5437 20.4137 27.424 20.4733C27.3043 20.5329 27.1735 20.5669 27.0399 20.573C25.9199 20.693 22.7066 18.2796 21.7066 16.333C21.3736 15.8874 21.1333 15.3796 20.9999 14.8396C20.9999 14.0263 22.3332 13.9996 22.8132 14.2263L23.7999 15.133C23.3599 15.573 22.7732 16.1463 23.1732 16.4663C23.2474 16.5357 23.3451 16.5743 23.4466 16.5743C23.5481 16.5743 23.6458 16.5357 23.7199 16.4663C23.9199 15.9196 25.1332 15.2796 25.4666 14.453C25.7999 13.6263 25.1999 12.8263 26.3732 11.3196C26.8197 10.7898 27.4549 10.4545 28.1443 10.3848C28.8337 10.3151 29.5231 10.5165 30.0666 10.9463C31.2266 12.173 30.6266 15.1463 28.7332 15.5596C28.0132 15.733 27.3999 15.5596 26.7332 16.093C26.4128 16.3938 26.1266 16.7292 25.8799 17.093C25.4932 17.613 25.0266 18.0663 25.5866 18.3063C26.1466 18.5463 26.1999 18.173 26.6132 17.6796C26.8266 17.3901 27.0727 17.1261 27.3466 16.893C27.7732 16.5996 28.3599 16.893 29.1999 16.6396C29.8211 16.4006 30.3782 16.0205 30.8272 15.5292C31.2762 15.0379 31.6049 14.449 31.7872 13.8089C31.9695 13.1688 32.0005 12.495 31.8778 11.8409C31.755 11.1867 31.4819 10.5701 31.0799 10.0396ZM22.1199 19.373C23.1066 20.3196 25.2799 21.8796 26.8399 21.8263C26.3732 22.3463 25.8399 22.8263 25.1866 22.613C23.1848 21.9467 21.4749 20.6089 20.3466 18.8263C19.8839 18.3315 19.4853 17.7805 19.1599 17.1863C19.0132 16.8973 18.9664 16.5679 19.0267 16.2495C19.087 15.9311 19.2511 15.6416 19.4932 15.4263L19.7066 15.253C20.0983 16.8412 20.9356 18.2845 22.1199 19.413V19.373Z" fill="#757509"/>
<path fill-rule="evenodd" clip-rule="evenodd" d="M16.8267 28.8128C15.4615 29.3406 14.038 29.7032 12.5867 29.8928C11.0933 30.0528 9.92 30.3994 9.13333 30.3861C9.04 30.3861 8.93333 30.2928 8.89333 30.3194C7.09333 26.5861 0.946667 7.0261 0.733333 6.6661C0.695143 6.59717 0.637446 6.54106 0.567482 6.50481C0.497519 6.46856 0.418406 6.45377 0.340073 6.46232C0.261739 6.47087 0.187674 6.50236 0.127173 6.55284C0.0666724 6.60333 0.0224305 6.67056 0 6.7461C0 6.8661 2.96 17.9061 3.29333 19.0394C4.50009 23.1103 5.99726 27.0894 7.77333 30.9461C8.49333 32.2794 10.5733 31.2928 12.7333 30.9461C14.2307 30.6611 15.6927 30.214 17.0933 29.6128C17.163 29.5543 17.2135 29.4763 17.2382 29.3888C17.263 29.3013 17.2608 29.2083 17.2321 29.1221C17.2033 29.0358 17.1493 28.9602 17.077 28.905C17.0047 28.8499 16.9175 28.8177 16.8267 28.8128Z" fill="#757509"/>
<path fill-rule="evenodd" clip-rule="evenodd" d="M1.18722 5.81286C5.08938 4.36232 9.10246 3.22974 13.1872 2.4262C14.4209 2.15188 15.6732 1.96916 16.9339 1.87953C16.7606 3.21286 15.8139 7.01286 17.7472 7.21286C19.5877 7.13891 21.3377 6.39436 22.6672 5.11953C23.1206 7.15953 22.8806 6.2262 23.7339 9.33286C23.7736 9.42137 23.8441 9.49244 23.9322 9.53286C24.0204 9.57327 24.1203 9.58026 24.2132 9.55254C24.3062 9.52482 24.3859 9.46427 24.4375 9.38216C24.4891 9.30005 24.5092 9.20198 24.4939 9.1062C24.1203 7.57275 23.8354 6.01907 23.6406 4.45286C23.4939 3.4262 18.6539 0.226196 16.5739 0.452863C10.4006 0.986196 5.00056 3.43953 0.827222 4.99953C0.719367 5.04727 0.634894 5.1359 0.592386 5.24592C0.549878 5.35594 0.552817 5.47834 0.600556 5.5862C0.648294 5.69405 0.736923 5.77852 0.846945 5.82103C0.956966 5.86354 1.07937 5.8606 1.18722 5.81286ZM22.0672 4.31953C21.5072 5.1062 19.1606 5.65286 18.0672 5.65286C17.8877 4.4572 17.8118 3.24826 17.8406 2.03953C19.3403 2.61744 20.7606 3.38357 22.0672 4.31953Z" fill="#757509"/>
<path fill-rule="evenodd" clip-rule="evenodd" d="M29.7328 23.8795C28.9728 23.8795 29.8528 24.9862 28.5194 27.4395L24.6128 25.9062C24.2528 25.7729 24.4528 25.7328 20.2261 28.5062C19.8194 27.2844 19.3431 26.0869 18.7994 24.9195C18.2528 24.1728 16.3594 24.7995 13.6794 25.2928C15.5995 22.4662 15.9328 22.0528 15.3728 21.5328C14.8128 21.0128 11.8794 19.1995 11.5728 18.7328C11.9061 18.5728 12.4928 18.3195 13.0795 18.0795C14.7328 17.4262 14.9328 17.5862 15.0528 17.1062C15.1728 16.6262 14.7594 14.4395 14.8528 13.6395C15.0128 13.6395 14.7061 13.5462 16.9594 14.0395C17.0761 14.0537 17.1937 14.0209 17.2862 13.9484C17.3787 13.8758 17.4386 13.7695 17.4528 13.6528C17.4669 13.5362 17.4341 13.4186 17.3616 13.3261C17.2891 13.2336 17.1828 13.1737 17.0661 13.1595C16.3861 13.0662 14.5595 12.1995 14.0795 12.9328C13.849 14.1371 13.813 15.3705 13.9728 16.5862C12.9647 16.8844 11.9761 17.2451 11.0128 17.6662C10.6128 17.8662 10.1461 17.9328 10.0261 18.4128C9.90612 18.8928 10.3994 19.4262 10.8261 19.7462C11.2528 20.0662 13.1328 21.5328 13.9861 22.1728C13.1371 23.2985 12.3493 24.4691 11.6261 25.6795C11.5341 25.8586 11.5119 26.0654 11.5636 26.26C11.6153 26.4546 11.7374 26.6231 11.9061 26.7328C12.5239 26.9712 13.2083 26.9712 13.8261 26.7328C14.6394 26.5862 16.7861 26.0928 17.8261 26.0128C18.8928 28.1462 19.1594 30.8128 20.3861 30.0128L24.5728 26.9995L28.5728 28.3995C28.6733 28.4377 28.784 28.44 28.886 28.406C28.9881 28.372 29.0753 28.3037 29.1328 28.2128C29.8338 26.9983 30.1888 25.6149 30.1595 24.2128C30.1461 24.1125 30.094 24.0214 30.0142 23.959C29.9344 23.8967 29.8334 23.8682 29.7328 23.8795Z" fill="#757509"/>
<path fill-rule="evenodd" clip-rule="evenodd" d="M13.3327 7.22622C13.4476 7.20146 13.548 7.13207 13.6118 7.0333C13.6755 6.93453 13.6974 6.81448 13.6727 6.69955C13.6479 6.58462 13.5785 6.48423 13.4798 6.42047C13.381 6.35671 13.261 6.33479 13.146 6.35955C10.3813 6.86328 7.73283 7.87116 5.33269 9.33288C5.28367 9.34864 5.23822 9.3739 5.19896 9.40722C5.15969 9.44054 5.12738 9.48127 5.10385 9.52708C5.08033 9.57289 5.06606 9.62289 5.06185 9.67421C5.05765 9.72554 5.0636 9.77719 5.07936 9.82621C5.09512 9.87524 5.12038 9.92069 5.1537 9.95995C5.18702 9.99921 5.22775 10.0315 5.27356 10.0551C5.31937 10.0786 5.36936 10.0928 5.42069 10.0971C5.47201 10.1013 5.52367 10.0953 5.57269 10.0795C9.86603 9.17288 11.306 7.83955 13.3327 7.22622Z" fill="#757509"/>
<path fill-rule="evenodd" clip-rule="evenodd" d="M8.41337 13.6792C9.45613 13.5929 10.4736 13.3125 11.4134 12.8525C12.0423 12.4587 12.7314 12.1704 13.4534 11.9992C13.5586 11.981 13.654 11.9261 13.7228 11.8444C13.7915 11.7627 13.8292 11.6593 13.8292 11.5525C13.8292 11.4457 13.7915 11.3424 13.7228 11.2607C13.654 11.1789 13.5586 11.1241 13.4534 11.1059C12.8619 11.056 12.2662 11.1101 11.6934 11.2659C10.9097 11.4451 10.1492 11.7135 9.4267 12.0659C9.76004 11.9459 7.28004 12.9725 7.2267 13.0792C6.93337 13.7725 7.69337 13.8125 8.41337 13.6792Z" fill="#757509"/>
</g>
<defs>
<clipPath id="clip0_2903_80384">
<rect width="32" height="32" fill="white"/>
</clipPath>
</defs>
</svg>
