<svg width="32" height="32" viewBox="0 0 32 32" fill="none" xmlns="http://www.w3.org/2000/svg">
<g clip-path="url(#clip0_2903_80329)">
<path d="M7.40446 15.7021C6.88446 15.2621 6.88446 14.9421 5.43113 14.9555C4.8906 15.0354 4.38619 15.2748 3.98242 15.6429C3.57865 16.0111 3.29386 16.4913 3.16446 17.0221C3.0439 17.4213 3.04687 17.8475 3.17299 18.2449C3.29911 18.6423 3.54248 18.9923 3.87113 19.2488C4.33092 19.5089 4.85596 19.6309 5.38333 19.6002C5.91069 19.5694 6.418 19.3872 6.84446 19.0755C7.29827 18.8173 7.65175 18.4137 7.84774 17.9298C8.04372 17.4459 8.07075 16.91 7.92446 16.4088C7.81158 16.1342 7.63302 15.8916 7.40446 15.7021ZM6.07113 17.9821C5.86803 18.1336 5.62598 18.2241 5.37331 18.243C5.12064 18.2619 4.86782 18.2084 4.64446 18.0888C4.31113 17.8755 4.36446 17.4221 4.49779 17.0221C4.63113 16.6221 4.99113 15.9821 5.44446 15.9021C5.65577 15.8766 5.87013 15.902 6.06962 15.9762C6.26911 16.0504 6.44793 16.1713 6.59113 16.3288C6.72385 16.444 6.81711 16.5979 6.85779 16.7688C7.04446 17.2888 6.60446 17.7155 6.12446 17.9821H6.07113Z" fill="#007675"/>
<path d="M7.42574 22.1064C6.90574 21.6664 6.90574 21.3464 5.43908 21.3598C4.90096 21.4422 4.39946 21.6826 3.99826 22.0506C3.59706 22.4185 3.31425 22.8974 3.18574 23.4264C3.05325 23.8329 3.05006 24.2704 3.17663 24.6788C3.30319 25.0871 3.55327 25.4462 3.89241 25.7064C4.3522 25.9665 4.87725 26.0885 5.40461 26.0578C5.93198 26.027 6.43929 25.8449 6.86574 25.5331C7.31956 25.275 7.67304 24.8713 7.86902 24.3874C8.065 23.9035 8.09204 23.3676 7.94574 22.8664C7.84069 22.5726 7.66159 22.3108 7.42574 22.1064ZM6.09241 24.3864C5.88932 24.5379 5.64726 24.6284 5.39459 24.6473C5.14193 24.6662 4.88911 24.6127 4.66574 24.4931C4.33241 24.2798 4.38574 23.8264 4.51908 23.4264C4.65241 23.0264 4.99908 22.3864 5.46574 22.3064C5.67492 22.2831 5.88666 22.3095 6.08364 22.3837C6.28063 22.4578 6.45725 22.5776 6.59908 22.7331C6.73537 22.8475 6.83313 23.0012 6.87908 23.1731C7.06574 23.6931 6.66574 24.1198 6.14574 24.3864H6.09241Z" fill="#007675"/>
<path d="M14.446 15.5286C13.8994 15.0619 13.8994 14.7686 12.4594 14.7686C11.9195 14.8519 11.4168 15.0943 11.0154 15.4648C10.614 15.8353 10.3322 16.3171 10.206 16.8486C10.0746 17.253 10.0719 17.6884 10.1985 18.0944C10.3251 18.5004 10.5747 18.8571 10.9127 19.1152C11.3693 19.3854 11.8961 19.5132 12.4258 19.4823C12.9555 19.4515 13.4639 19.2633 13.886 18.9419C14.3398 18.6838 14.6933 18.2801 14.8893 17.7962C15.0853 17.3123 15.1123 16.7764 14.966 16.2752C14.8611 15.9851 14.6818 15.7276 14.446 15.5286ZM13.1127 17.8086C12.9096 17.9601 12.6675 18.0505 12.4149 18.0694C12.1622 18.0883 11.9094 18.0348 11.686 17.9152C11.3527 17.7019 11.406 17.2352 11.5394 16.8352C11.6727 16.4352 12.0194 15.7952 12.486 15.7286C12.7915 15.6784 13.105 15.7361 13.3726 15.8918C13.6402 16.0475 13.8453 16.2915 13.9527 16.5819C14.086 17.1152 13.646 17.5286 13.166 17.8086H13.1127Z" fill="#007675"/>
<path d="M14.4659 21.9329C13.9459 21.4929 13.9459 21.1729 12.4792 21.1729C11.9352 21.2455 11.4269 21.4843 11.0237 21.8566C10.6204 22.2288 10.3418 22.7164 10.2259 23.2529C10.0924 23.6572 10.0888 24.0931 10.2155 24.4996C10.3422 24.9061 10.593 25.2627 10.9326 25.5195C11.3905 25.7878 11.918 25.9134 12.4477 25.8801C12.9774 25.8469 13.4851 25.6563 13.9059 25.3329C14.3597 25.0747 14.7132 24.6711 14.9092 24.1871C15.1052 23.7032 15.1322 23.1674 14.9859 22.6662C14.879 22.3808 14.6998 22.1282 14.4659 21.9329ZM13.1326 24.2129C12.9295 24.3643 12.6874 24.4548 12.4347 24.4737C12.1821 24.4926 11.9293 24.4391 11.7059 24.3195C11.3592 24.1062 11.4259 23.6395 11.5592 23.2395C11.6926 22.8395 12.0392 22.1995 12.5059 22.1329C12.714 22.1078 12.9251 22.1322 13.122 22.204C13.3189 22.2758 13.4961 22.3931 13.6392 22.5462C13.7755 22.6606 13.8733 22.8142 13.9192 22.9862C14.0926 23.5195 13.6659 23.9995 13.1859 24.2129H13.1326Z" fill="#007675"/>
<path d="M21.0128 5.15978C20.8622 6.17071 20.9723 7.20336 21.3328 8.15978C21.5737 8.62871 21.9779 8.99331 22.4691 9.18488C22.9603 9.37645 23.5046 9.38175 23.9994 9.19978C24.336 9.11823 24.6468 8.9534 24.903 8.72042C25.1593 8.48744 25.3529 8.19379 25.4661 7.86645C25.6841 7.11824 25.7654 6.33684 25.7061 5.55978V5.10645V3.61311C25.726 3.3179 25.6815 3.02188 25.5756 2.74559C25.4696 2.46931 25.3049 2.21937 25.0928 2.01311C24.382 1.53091 23.515 1.33561 22.6661 1.46645C22.6089 1.46466 22.552 1.47438 22.4987 1.49502C22.4454 1.51566 22.3968 1.5468 22.3557 1.5866C22.3147 1.6264 22.2821 1.67404 22.2598 1.7267C22.2375 1.77935 22.2261 1.83594 22.2261 1.89311C22.1934 1.81089 22.1325 1.74297 22.0544 1.70146C21.9762 1.65994 21.8859 1.64753 21.7994 1.66645C21.7123 1.69085 21.6325 1.73652 21.5673 1.79936C21.5022 1.86219 21.4536 1.94022 21.4261 2.02645C21.3466 2.49311 21.3153 2.96671 21.3328 3.43978L21.1461 4.25311C21.0766 4.55112 21.032 4.85438 21.0128 5.15978ZM22.1194 4.61311C22.1194 4.61311 22.3328 2.13311 22.3328 2.03978C22.3664 2.11824 22.4221 2.18522 22.4931 2.23257C22.5641 2.27992 22.6474 2.30559 22.7328 2.30645C23.9328 2.30645 24.4394 2.53311 24.5728 2.99978C24.6161 3.84811 24.5579 4.69858 24.3994 5.53311C24.403 6.04931 24.3449 6.56409 24.2261 7.06645C24.1328 7.38645 24.0128 7.70645 23.6794 7.78645C23.5493 7.84537 23.4077 7.87453 23.2649 7.87179C23.1221 7.86906 22.9817 7.83449 22.854 7.77062C22.7263 7.70675 22.6144 7.61518 22.5265 7.50259C22.4386 7.38999 22.377 7.25921 22.3461 7.11978C22.1342 6.30221 22.0576 5.45544 22.1194 4.61311Z" fill="#007675"/>
<path d="M11.3989 4.74677C11.3989 4.88011 11.4923 5.01344 12.0123 5.06677C12.7589 5.06677 13.0789 5.30677 14.1056 5.36011H15.7856H17.4523C18.3723 5.36011 18.9323 5.28011 19.8656 5.21344C20.3056 5.21344 20.6523 4.36011 20.0656 4.21344C19.0523 4.17344 18.3589 4.00011 17.3323 4.00011H14.6656C13.8411 3.99738 13.0173 4.04637 12.1989 4.14677C11.6389 4.18677 11.3856 4.54677 11.3989 4.74677Z" fill="#007675"/>
<path d="M30.6665 5.42633C30.2166 4.93684 29.6243 4.60104 28.9732 4.46633C28.3561 4.30313 27.7169 4.2401 27.0798 4.27966C26.1332 4.413 26.3865 5.06633 26.8798 5.06633C27.3266 5.06185 27.7728 5.09755 28.2132 5.173C28.8783 5.22049 29.5015 5.51542 29.9598 5.99966C30.2706 6.62285 30.4477 7.30406 30.4798 7.99966C30.6132 9.03966 30.7198 10.3863 30.7865 11.8663C28.8265 11.8663 24.8932 11.7063 20.4798 11.6263H15.9598H11.4398C6.66651 11.6663 2.51985 11.8263 1.21318 11.8797C1.20472 9.868 1.41032 7.86115 1.82651 5.893C1.95768 5.65221 2.14999 5.45024 2.38407 5.30746C2.61815 5.16467 2.88573 5.0861 3.15985 5.07966C3.71362 4.94491 4.28397 4.89102 4.85318 4.91966C4.92855 4.90669 4.99783 4.87006 5.05098 4.81507C5.10413 4.76008 5.13838 4.6896 5.14878 4.61383C5.15918 4.53806 5.14518 4.46096 5.10882 4.39368C5.07245 4.3264 5.0156 4.27246 4.94651 4.23966C4.12054 4.06074 3.26582 4.06074 2.43985 4.23966C2.11268 4.31838 1.80792 4.47109 1.54903 4.68607C1.29014 4.90104 1.08402 5.17253 0.946514 5.47966C0.426514 6.70633 -0.106819 13.4797 0.0131808 19.4797C0.106514 23.8397 0.626514 27.7463 1.58651 28.9197C2.29318 29.773 4.13318 30.253 6.45318 30.4397C10.0665 30.6797 14.8665 30.2797 17.3465 30.2797C20.461 30.3783 23.5786 30.2758 26.6798 29.973C28.0779 29.8515 29.4377 29.4527 30.6798 28.7997C31.0416 28.4929 31.2826 28.0676 31.3598 27.5997C31.8346 24.8616 32.0489 22.0848 31.9998 19.3063C31.9998 13.333 31.5065 6.413 30.6665 5.42633ZM30.3332 26.0397C30.2589 26.6248 30.111 27.1982 29.8932 27.7463C28.4011 28.3709 26.8038 28.7057 25.1865 28.733C22.0665 28.9863 18.6265 28.8663 17.3465 28.8663C14.8932 28.8663 10.1332 29.2797 6.54651 29.0663C4.70651 28.9597 3.18651 28.773 2.62651 28.1063C1.71985 27.053 1.33318 23.4663 1.21318 19.5063C1.12454 17.2273 1.11565 14.9459 1.18651 12.6663C2.51985 12.6663 6.58651 12.8797 11.4398 12.973H15.9598H20.4798C24.9198 12.893 28.8665 12.773 30.8132 12.7197C30.8132 14.053 30.8798 15.5597 30.8132 17.0263C30.8399 20.0378 30.6796 23.048 30.3332 26.0397Z" fill="#007675"/>
<path d="M5.97384 5.11938C5.87122 6.18704 5.97534 7.26447 6.2805 8.29271C6.52148 8.76165 6.92565 9.12625 7.41685 9.31782C7.90804 9.50938 8.45234 9.51468 8.94717 9.33271C9.28674 9.25433 9.60077 9.0908 9.85969 8.85754C10.1186 8.62428 10.3139 8.32896 10.4272 7.99938C10.654 7.24377 10.7354 6.452 10.6672 5.66605V4.25271V3.71938C10.6853 3.42434 10.6399 3.12884 10.5341 2.85282C10.4283 2.5768 10.2645 2.3267 10.0538 2.11938C9.34543 1.63128 8.47783 1.43106 7.62717 1.55938C7.51048 1.55938 7.39856 1.60574 7.31604 1.68825C7.23353 1.77077 7.18717 1.88269 7.18717 1.99938C7.15445 1.91716 7.09359 1.84924 7.01545 1.80773C6.9373 1.76621 6.84695 1.7538 6.7605 1.77271C6.67333 1.79712 6.59359 1.84279 6.52843 1.90562C6.46327 1.96846 6.41473 2.04649 6.38717 2.13271C6.28707 2.57063 6.22902 3.0171 6.21384 3.46605L6.06717 4.17271V4.51938L5.97384 5.11938ZM7.06717 4.73271C7.06717 4.73271 7.2805 2.26605 7.2805 2.15938C7.31052 2.24137 7.36496 2.31218 7.43649 2.36225C7.50802 2.41232 7.59319 2.43925 7.6805 2.43938C8.8805 2.43938 9.38717 2.66605 9.5205 3.13271C9.55941 3.98158 9.49675 4.83205 9.33384 5.66605C9.33501 6.18211 9.27685 6.6966 9.1605 7.19938C9.0805 7.50605 8.9605 7.82605 8.62717 7.90605C8.49707 7.96498 8.35547 7.99413 8.21267 7.99139C8.06988 7.98866 7.92949 7.95409 7.80175 7.89022C7.67401 7.82635 7.56213 7.73478 7.47426 7.62219C7.38639 7.5096 7.32475 7.37882 7.29384 7.23938C7.07949 6.42223 7.00288 5.57506 7.06717 4.73271Z" fill="#007675"/>
<path fill-rule="evenodd" clip-rule="evenodd" d="M26.3946 20.4695C26.3484 20.4744 26.3037 20.4883 26.2629 20.5106C26.2222 20.5329 26.1863 20.563 26.1573 20.5992C26.1283 20.6355 26.1068 20.6771 26.094 20.7218C26.0812 20.7664 26.0774 20.8131 26.0828 20.8592C26.2165 21.5555 26.1252 22.2763 25.8222 22.9173C25.5192 23.5583 25.0202 24.0863 24.3973 24.425C23.7615 24.6887 23.0616 24.7573 22.3867 24.6219C21.7118 24.4866 21.0925 24.1535 20.6075 23.6651C20.0361 23.1813 19.6606 22.506 19.5512 21.7654C19.4419 21.0248 19.6061 20.2697 20.0132 19.6414C20.1786 19.2958 20.4132 18.9879 20.7026 18.7368C20.9919 18.4857 21.3298 18.2967 21.6952 18.1816C22.0606 18.0665 22.4458 18.0277 22.8268 18.0677C23.2079 18.1076 23.5766 18.2254 23.9102 18.4138C23.983 18.4533 24.0682 18.4631 24.148 18.4413C24.2278 18.4196 24.2962 18.3678 24.3389 18.2969C24.3599 18.2625 24.3737 18.2243 24.3797 18.1844C24.3857 18.1446 24.3836 18.1039 24.3736 18.0649C24.3636 18.0258 24.3459 17.9892 24.3216 17.9571C24.2972 17.925 24.2666 17.8981 24.2317 17.878C23.8238 17.6115 23.3656 17.4316 22.8853 17.3496C22.405 17.2676 21.913 17.2851 21.4398 17.4011C20.9666 17.5171 20.5223 17.7292 20.1344 18.024C19.7465 18.3189 19.4234 18.6904 19.1851 19.1153C18.6135 19.9513 18.3674 20.9675 18.493 21.9724C18.6186 22.9773 19.1073 23.9015 19.867 24.5712C20.5348 25.1798 21.3689 25.5754 22.2627 25.7073C23.1566 25.8392 24.0694 25.7015 24.8845 25.3116C25.654 24.8647 26.2591 24.1818 26.6101 23.364C26.961 22.5463 27.0392 21.6372 26.833 20.7715C26.8277 20.7213 26.8115 20.6727 26.7856 20.6293C26.7598 20.5858 26.7248 20.5485 26.6832 20.5198C26.6416 20.4911 26.5942 20.4717 26.5444 20.4631C26.4946 20.4544 26.4435 20.4566 26.3946 20.4695Z" fill="#007675"/>
<path fill-rule="evenodd" clip-rule="evenodd" d="M28.3421 16.7184C28.3095 16.6857 28.2708 16.6598 28.2282 16.642C28.1856 16.6243 28.1398 16.6152 28.0937 16.6152C28.0475 16.6152 28.0018 16.6243 27.9592 16.642C27.9165 16.6598 27.8778 16.6857 27.8452 16.7184C26.8703 17.5035 25.9612 18.3669 25.1271 19.3002C24.4743 20.0114 23.88 20.7129 23.4318 21.2487L22.9934 21.7943C22.38 21.2527 21.8009 20.6735 21.2592 20.0601C21.2009 20.0024 21.1221 19.97 21.04 19.97C20.958 19.97 20.8792 20.0024 20.8208 20.0601C20.791 20.0883 20.7673 20.1223 20.7511 20.16C20.7349 20.1977 20.7266 20.2383 20.7266 20.2793C20.7266 20.3203 20.7349 20.3609 20.7511 20.3986C20.7673 20.4363 20.791 20.4703 20.8208 20.4985C21.3398 21.2807 21.9162 22.0232 22.5453 22.7198C22.6484 22.8276 22.7811 22.9027 22.9266 22.9356C23.0721 22.9685 23.2241 22.9578 23.3636 22.9049C23.83 22.5919 24.2471 22.211 24.601 21.7748C24.9419 21.3948 25.3414 20.9175 25.7408 20.4206C26.5495 19.3309 27.418 18.2869 28.3421 17.2932C28.3865 17.2596 28.4225 17.2162 28.4473 17.1663C28.4721 17.1164 28.485 17.0615 28.485 17.0058C28.485 16.9501 28.4721 16.8952 28.4473 16.8453C28.4225 16.7954 28.3865 16.752 28.3421 16.7184Z" fill="#007675"/>
</g>
<defs>
<clipPath id="clip0_2903_80329">
<rect width="32" height="32" fill="white"/>
</clipPath>
</defs>
</svg>
